<?xml version="1.0" standalone="no"?>
<!DOCTYPE svg PUBLIC "-//W3C//DTD SVG 20010904//EN"
 "http://www.w3.org/TR/2001/REC-SVG-20010904/DTD/svg10.dtd">
<svg version="1.0" xmlns="http://www.w3.org/2000/svg"
 width="544.000000pt" height="871.000000pt" viewBox="0 0 544.000000 871.000000"
 preserveAspectRatio="xMidYMid meet">
<metadata>
Created by potrace 1.13, written by Peter Selinger 2001-2015
</metadata>
<g transform="translate(0.000000,871.000000) scale(0.100000,-0.100000)"
fill="#586e75" stroke="none">
<path d="M2823 8550 c-148 -31 -241 -180 -189 -304 8 -19 39 -61 70 -95 30
-33 58 -72 62 -86 6 -26 -78 -589 -98 -653 -5 -18 -20 -37 -31 -42 -12 -5 -94
-26 -181 -46 -298 -68 -524 -161 -752 -312 -202 -135 -369 -294 -518 -495
-109 -148 -163 -237 -235 -387 -158 -332 -219 -628 -208 -1020 16 -601 212
-1098 587 -1484 196 -202 377 -328 780 -541 91 -48 166 -88 168 -90 5 -4 -238
-172 -329 -229 -50 -30 -81 -56 -88 -74 -5 -15 -15 -146 -20 -292 -11 -279
-26 -398 -80 -635 -16 -71 -46 -204 -67 -293 -34 -153 -36 -167 -24 -219 10
-47 22 -66 81 -128 97 -101 99 -109 99 -324 l0 -181 228 -2 227 -3 5 -140 c6
-155 18 -196 73 -253 48 -51 103 -75 167 -75 67 0 115 19 168 68 70 63 86 109
92 265 l5 135 387 3 387 2 -2 -147 c-2 -164 3 -182 67 -246 136 -137 351 -88
407 93 18 58 19 80 13 201 -5 110 -3 146 10 190 28 98 119 191 268 274 39 22
54 36 56 55 6 57 16 75 66 129 62 64 84 111 93 192 6 63 -1 108 -59 379 -96
447 -92 416 -93 800 0 190 -2 396 -3 457 l-2 113 -247 2 -248 3 75 44 c615
364 993 822 1136 1378 47 183 65 335 65 548 0 556 -155 1070 -439 1455 -68 91
-231 262 -327 340 -301 246 -701 412 -1209 500 -66 11 -121 22 -123 24 -3 2
-26 148 -53 325 -56 367 -56 368 16 427 132 107 104 287 -56 369 -54 28 -119
37 -177 25z m81 -687 c13 -69 67 -466 63 -469 -2 -3 -43 -8 -91 -11 -75 -5
-86 -4 -86 10 0 16 66 432 75 475 7 31 32 28 39 -5z m89 -635 c3 -18 25 -157
48 -308 23 -151 45 -278 48 -282 3 -4 27 -2 54 3 42 10 47 13 46 37 0 15 -17
149 -38 297 -21 149 -36 273 -32 276 3 3 51 2 106 -2 689 -58 1330 -498 1636
-1124 308 -632 286 -1425 -56 -2045 -157 -284 -417 -555 -689 -720 -356 -214
-713 -310 -1158 -310 -362 0 -641 60 -938 201 -221 106 -370 210 -548 383
-282 274 -483 644 -565 1041 -40 189 -51 297 -50 485 0 191 12 304 49 480 143
671 603 1217 1242 1476 173 71 493 137 491 103 0 -8 -22 -147 -48 -309 -26
-162 -47 -296 -45 -298 1 -2 25 -9 52 -17 l51 -13 5 27 c3 14 28 161 56 326
28 165 53 306 55 313 3 8 35 12 114 12 l109 0 5 -32z m1002 -4237 l160 -6 -58
-43 c-107 -80 -292 -199 -326 -211 -40 -13 -1638 -16 -1659 -3 -15 10 265 195
329 217 73 26 131 28 225 9 140 -30 433 -26 679 9 270 38 331 40 650 28z m295
-300 l0 -239 -103 -4 c-92 -3 -108 -6 -144 -30 -46 -30 -83 -97 -90 -161 -3
-28 18 -148 62 -357 117 -556 129 -592 224 -705 68 -79 68 -102 -1 -153 -97
-71 -361 -254 -375 -259 -11 -4 -13 151 -13 903 0 846 1 911 18 944 13 26 63
66 212 166 107 73 198 133 203 133 4 1 7 -107 7 -238z m-562 -1023 l-3 -923
-875 0 -875 0 -3 923 -2 922 880 0 880 0 -2 -922z m472 647 c27 -14 53 -33 58
-42 10 -20 58 -215 156 -643 l63 -275 -30 -38 c-16 -20 -37 -42 -47 -47 -25
-13 -66 3 -107 42 -29 28 -36 48 -73 202 -88 373 -140 611 -146 663 -6 51 -5
57 31 108 20 30 39 55 42 55 2 0 26 -11 53 -25z m-2356 -1104 c-3 -3 -19 9
-35 27 -22 24 -29 42 -29 72 0 34 37 175 58 220 4 8 8 -59 10 -149 1 -90 0
-167 -4 -170z m2116 -668 c-1 -168 -9 -209 -51 -247 -27 -24 -38 -27 -72 -23
-94 13 -147 117 -131 258 l6 58 112 44 c61 25 117 45 124 46 9 1 12 -33 12
-136z m-1274 -33 c-9 -149 -20 -179 -76 -207 -60 -31 -83 -29 -126 9 -53 47
-64 81 -64 203 l0 105 137 0 136 0 -7 -110z"/>
<path d="M3481 5875 c-184 -40 -334 -170 -398 -345 -25 -67 -28 -88 -28 -195
1 -106 4 -128 28 -189 37 -94 105 -185 179 -241 82 -62 124 -82 215 -106 258
-65 524 52 635 281 80 166 79 325 -3 497 -110 230 -370 353 -628 298z"/>
<path d="M2057 5470 c-168 -43 -276 -204 -246 -367 20 -107 81 -187 184 -241
44 -24 61 -27 150 -27 89 0 106 3 151 27 187 99 229 343 84 501 -81 88 -217
133 -323 107z"/>
<path d="M2225 4155 c-51 -18 -110 -81 -126 -135 -12 -40 -12 -44 10 -61 38
-31 62 -23 116 36 42 45 57 55 83 55 44 0 78 -24 108 -76 39 -67 116 -131 171
-142 97 -21 179 22 264 138 81 112 126 111 212 -5 72 -96 120 -128 200 -133
90 -5 154 30 224 122 56 73 90 102 134 111 21 5 29 15 37 48 13 49 6 57 -53
57 -95 0 -137 -28 -248 -163 -66 -81 -107 -75 -182 25 -80 105 -132 138 -220
138 -87 0 -142 -36 -220 -145 -39 -55 -65 -75 -99 -75 -30 0 -48 17 -148 133
-26 30 -63 62 -82 71 -42 20 -127 20 -181 1z"/>
</g>
</svg>
